<?xml version="1.0" encoding="utf-8"?>
<!-- Generator: Adobe Illustrator 19.2.1, SVG Export Plug-In . SVG Version: 6.00 Build 0)  -->
<svg version="1.1" id="Слой_1" xmlns="http://www.w3.org/2000/svg" xmlns:xlink="http://www.w3.org/1999/xlink" x="0px" y="0px"
	 viewBox="0 0 80 80" style="enable-background:new 0 0 80 80;" xml:space="preserve">
<style type="text/css">
	.st0{fill:#FFFFFF;}
	.st1{fill:#BC2132;}
</style>
<g>
	<path class="st0" d="M53,36c2,0,1-1,0-1h-4v-2.5c0-1-0.5-2.5-1.5-2.5H44v-4c0-1-1-1-1,0v4h-3v-4c0-1-1-1-1,0v4h-3v-4c0-1-1-1-1,0v4
		h-2.5c-1,0-2.5,1.5-2.5,2.5V36h-4c-1,0,0,1,0,1h4v3h-4c-1,0,0,1,0,1h4v3h-4c-1,0,0,1,0,1h4v2.5c0,1,1.5,1.5,2.5,1.5H35v4
		c0,1,1,1,1,0v-4h3v4c0,1,1,1,1,0v-4h3v4c0,1,1,1,1,0v-4h3.5c1,0,1.5-0.4,1.5-1.5V44h4c2,0,1-1,0-1h-4v-3h4c2,0,1-1,0-1h-4v-3H53z
		 M48,48h-7v-1.5c0-0.2,0,0.2,0,0l-3-3v-2c1-0.4,1.5-1.2,1.3-2c-0.2-0.6-0.5-1.3-1.4-1.4c-0.5,0-1.7,0.3-1.7,1.4
		c0,0.7,0.8,1.7,0.8,2v2c0,0.2,0-0.2,0,0l3,3V48h-9V31h7v3.5c0,0.2-0.2,0.8,0,1l3,3v1c0,0.4-1,1.2-0.7,2c0,0.9,1,1.4,1.6,1.4
		c0.3,0,1.3-0.3,1.3-1.4c0-1.1-0.2-1.7-1.2-2v-1c0-0.2,0.2-0.8,0-1l-3-3V31h9V48z"/>
	<g>
		<path class="st1" d="M40,1c21.5,0,39,17.5,39,39S61.5,79,40,79S1,61.5,1,40S18.5,1,40,1 M40,0C17.9,0,0,17.9,0,40s17.9,40,40,40
			s40-17.9,40-40S62.1,0,40,0L40,0z"/>
	</g>
</g>
</svg>
