<?xml version="1.0" encoding="utf-8"?>
<!-- Generator: Adobe Illustrator 19.2.1, SVG Export Plug-In . SVG Version: 6.00 Build 0)  -->
<svg version="1.1" id="Слой_1" xmlns="http://www.w3.org/2000/svg" xmlns:xlink="http://www.w3.org/1999/xlink" x="0px" y="0px"
	 viewBox="0 0 108 108" style="enable-background:new 0 0 108 108;" xml:space="preserve">
<style type="text/css">
	.st0{fill:#F47A24;}
	.st1{fill:#FFFFFF;}
	.st2{fill:#32B2FB;}
</style>
<g>
	<circle class="st0" cx="219" cy="282" r="54"/>
	<path class="st1" d="M200.2,281.9c-4.5,0-8.2,3.8-8.2,8.5s3.7,8.5,8.2,8.5s8.2-3.8,8.2-8.5S204.7,281.9,200.2,281.9z M200.2,296.5
		c-3.2,0-5.9-2.7-5.9-6.1s2.6-6.1,5.9-6.1c3.2,0,5.9,2.7,5.9,6.1S203.5,296.5,200.2,296.5z M237.8,281.9c-4.5,0-8.2,3.8-8.2,8.5
		s3.7,8.5,8.2,8.5s8.2-3.8,8.2-8.5S242.3,281.9,237.8,281.9z M237.8,296.5c-3.2,0-5.9-2.7-5.9-6.1s2.6-6.1,5.9-6.1
		c3.2,0,5.9,2.7,5.9,6.1S241,296.5,237.8,296.5z M241.3,279.5c0.6,0,1.2-0.5,1.2-1.2c0-2.7-2.3-6.3-2.5-6.7c-0.2-0.3-0.6-0.5-1-0.5
		h-2.4c0,0-0.2-0.9-0.6-1.1l-4.7-4.7c-0.6-0.3-1.3,0-1.6,0.5c-0.3,0.6-0.1,1.3,0.5,1.6l3.6,3.6h-6.6c-4.1,0-7.6,4-8.2,7h-6.8
		c0,0-7.8-5-11.3-7h-4.5c-0.5,0-2.1,2.2-2.3,2.7c-0.1,0.5,0.2,1.5,0.7,1.8c0.1,0,7,4.3,11.6,6.7c4.1,4.4,3.4,8,3.4,8.1
		c0,0.7,1.6,2.7,2.3,2.7h13.5c0.6,0,2.3-2,2.3-2.7C228,282.2,231.8,279.5,241.3,279.5z M225.8,289h-13.5c0,0,2.2-2.4-4.2-9
		c-0.1-0.1-0.2,0.5-0.3,0.4c-2.4-1.2-8.9-5.4-11.3-5.4h4.5l11.3,5.9c0.2,0.1,2.1-0.9,2.3-0.9h4.5c0.6,0,2.3-1.4,2.3-2
		c0-3.3,2.7-5,6-5h11.1c0.5,2,1.3,2.2,1.6,3.4C228.3,276.9,226.1,284,225.8,289z"/>
</g>
<g>
	<circle class="st0" cx="419" cy="186" r="54"/>
	<path class="st1" d="M437.9,206.8c-2.2-1.5-3.3-2.6-8.2-2.6c-3.4,0-6.7,2.4-10,2.4c-3.4,0-6.7-2.4-10-2.4c-3.8,0-6.6,1.8-8.2,2.9
		c-2.1,1.3-3.2-1-1.5-2.2c0,0,3.2-3.1,9.9-3.1c3.7,0,6.2,2.4,9.9,2.4c3.8,0,6.3-2.4,10-2.4c6.3,0,10,3.1,10,3.1
		C441.3,206.1,439.5,208.1,437.9,206.8z M419,184.6c-0.2-4.8-4.7-20.1-4.7-20.1s11.2,7.4,15.9,13.3c4.8,5.8,9,13.3,9,13.3h-4.5
		c0,0-5.4-11.6-15.8-20.3c3.2,9.8,2.3,20.3,2.3,20.3H419C419,191,419.2,189.4,419,184.6z M414.5,173.2c0,0-1.3,9-4.1,13.5
		c-2.8,4.5-9.4,6.3-9.4,6.3h4.5c0,0,8.5-0.2,8.5-8.1c0,5.8,0,8.1,0,8.1h2.8L414.5,173.2z M392,198.1c0.8,4.7,4.3,6.1,4.3,6.1
		l1.8-1.4c0,0-1.8-1.2-2.1-3l46.9-4c0,0,0.8,3.3-3.3,4l1.3,1.8c5.1,0,5.1-8.4,5.1-8.4L392,198.1z"/>
</g>
<circle class="st2" cx="54" cy="54" r="54"/>
<path class="st1" d="M76.9,46.9l-3.5-1.7c-0.8-0.8-1.1-0.2-2.2-0.2h-5.7c-1.1,0-2.5-1-2.5,0v1.9c0,1.2,1.5,3.1,2.5,3.1H75
	c4.9,0,9,4.2,9.6,9c0.1,1.2-1.8,1.5-1.9,0.3C82.3,55.4,79,52,75,52h-9.6c-2.1,0-4.5-3-4.5-5.1V45c0-2.1,2.4-2,4.5-2h5.7
	c1.6,0,2.4-0.2,3.5,0.9l4.2,3.5C79.7,48.2,77.8,47.8,76.9,46.9z M33.2,52.8c3.6,0,6.6,3,6.6,6.6c0,3.7-2.9,6.6-6.6,6.6
	c-3.6,0-6.6-3-6.6-6.6C26.7,55.8,29.6,52.8,33.2,52.8z M33.2,54.6c-2.6,0-4.8,2.2-4.8,4.8c0,2.7,2.1,4.8,4.8,4.8
	c2.6,0,4.8-2.2,4.8-4.8S35.9,54.6,33.2,54.6z M75.1,52.8c3.6,0,6.6,3,6.6,6.6c0,3.7-2.9,6.6-6.6,6.6c-3.6,0-6.6-3-6.6-6.6
	C68.5,55.8,71.4,52.8,75.1,52.8z M75.1,54.6c-2.6,0-4.8,2.2-4.8,4.8c0,2.7,2.1,4.8,4.8,4.8c2.6,0,4.8-2.2,4.8-4.8
	C79.8,56.8,77.7,54.6,75.1,54.6z M41,61h24c2,0,2,2,0,2H41C40,63,40,61,41,61z M42.5,46.9l5.4-3c1.1-1.1,2.5-0.9,4.2-0.9h3.8
	c2,0,3.1,0,3.1,2v1.9c0,2-1,5.1-3.1,5.1H33c-4,0-7.4,3.2-7.8,7.2c-0.1,1.2-1.9,1.3-1.8,0.1C23.9,54.4,28,50,33,50h22.9
	c1,0,1.9-1.3,1.9-2.5v-1.4c0-1.1-0.9-1.2-1.9-1.2h-3.8c-1.2,0-2.2-0.6-2.9,0.2l-4.7,2.2C43.6,48.3,41.7,47.8,42.5,46.9z"/>
</svg>
