<?xml version="1.0" encoding="utf-8"?>
<!-- Generator: Adobe Illustrator 21.1.0, SVG Export Plug-In . SVG Version: 6.00 Build 0)  -->
<svg version="1.1" id="Слой_1" xmlns="http://www.w3.org/2000/svg" xmlns:xlink="http://www.w3.org/1999/xlink" x="0px" y="0px"
	 viewBox="0 0 54 54" style="enable-background:new 0 0 54 54;" xml:space="preserve">
<style type="text/css">
	.st0{display:none;}
	.st1{display:inline;fill:#41A9B2;}
	.st2{fill:#33474F;}
</style>
<g class="st0">
	<path class="st1" d="M27,7c11,0,20,9,20,20s-9,20-20,20S7,38,7,27S16,7,27,7 M27,5C14.8,5,5,14.8,5,27s9.8,22,22,22s22-9.8,22-22
		S39.2,5,27,5L27,5z"/>
	<circle class="st1" cx="27" cy="27" r="4"/>
</g>
<path class="st2" d="M42.8,21.1h-4.4c0-5.4,0-5.4,0-5.5c0-2.9-1.2-5.6-3.4-7.6c-2.2-2-5-3-8-3s-5.8,1.1-8,3c-2.2,2-3.4,4.7-3.4,7.6
	c0,0,0,3.8,0,5.4h-4.4C10,21.1,9,22,9,23.2v23.7C9,48,10,49,11.2,49h31.7c1.2,0,2.1-1,2.1-2.1V23.2C45,22,44,21.1,42.8,21.1z
	 M19.1,15.6c0-3.9,3.6-7.1,7.9-7.1c4.3,0,7.9,3.2,7.9,7.1c0,0.1,0,3.8,0,5.4H19.1C19.1,19.5,19.1,15.7,19.1,15.6z M28.5,36.7
	l0.5,5.3h-4.6l0.5-5.3c-1.6-0.7-2.7-2.2-2.7-4.1c0-2.4,2-4.4,4.4-4.4s4.4,2,4.4,4.4C31.2,34.5,30.1,36,28.5,36.7z"/>
</svg>
