<?xml version="1.0" encoding="utf-8"?>
<!-- Generator: Adobe Illustrator 19.0.0, SVG Export Plug-In . SVG Version: 6.00 Build 0)  -->
<svg version="1.1" id="Слой_1" xmlns="http://www.w3.org/2000/svg" xmlns:xlink="http://www.w3.org/1999/xlink" x="0px" y="0px"
	 viewBox="-1017 3398.5 120 120" style="enable-background:new -1017 3398.5 120 120;" xml:space="preserve">
<style type="text/css">
	.st0{fill:#222222;stroke:#FFFFFF;stroke-width:0.9449;stroke-miterlimit:10;}
	.st1{fill:#32B2FB;}
	.st2{fill:#FFFFFF;}
</style>
<g>
	<path class="st0" d="M-923.8,3433.7c0,18.3-28,37.3-33.2,80.2c-5.2-42.9-33.2-61.9-33.2-80.2c0-18.3,14.8-33.2,33.2-33.2
		S-923.8,3415.3-923.8,3433.7z"/>
	<g>
		<circle class="st1" cx="-957" cy="3433.2" r="27.8"/>
		<path class="st2" d="M-942.7,3429l-2.2-1.7c-0.5-0.5-0.7-0.7-1.4-0.7h-3.6c-0.7,0-1.2,0.6-1.2,1.2v1.2c0,0.8,0.6,1.2,1.2,1.2h6
			c3,0,5.7,2.9,6,6c0.1,0.8-1.1,0.8-1.2,0c-0.3-2.5-2.3-4.7-4.7-4.7h-6c-1.3,0-2.4-1.1-2.4-2.4v-1.2c0-1.3,1.1-2.4,2.4-2.4h3.6
			c1,0,1.5,0.5,2.2,1.1l2.6,2.5C-941,3429.5-942.2,3429.5-942.7,3429z M-969.9,3432.6c2.3,0,4.1,1.9,4.1,4.2c0,2.3-1.8,4.2-4.1,4.2
			s-4.1-1.9-4.1-4.2C-974,3434.5-972.2,3432.6-969.9,3432.6z M-969.9,3433.8c-1.6,0-3,1.3-3,3c0,1.7,1.3,3,3,3c1.6,0,3-1.3,3-3
			C-966.9,3435.1-968.2,3433.8-969.9,3433.8z M-943.9,3432.6c2.3,0,4.1,1.9,4.1,4.2c0,2.3-1.8,4.2-4.1,4.2s-4.1-1.9-4.1-4.2
			C-947.9,3434.5-946.1,3432.6-943.9,3432.6z M-943.9,3433.8c-1.6,0-3,1.3-3,3c0,1.7,1.3,3,3,3c1.6,0,3-1.3,3-3
			C-940.9,3435.1-942.3,3433.8-943.9,3433.8z M-964.2,3437.4h14.3c0.8,0,0.8,1.2,0,1.2h-14.3
			C-964.8,3438.5-964.8,3437.4-964.2,3437.4z M-964.2,3429l3.4-2.5c0.7-0.7,1.6-1.1,2.6-1.1h2.4c1.2,0,2.4,1.1,2.4,2.4v1.2
			c0,1.2-1,2.4-2.4,2.4h-14.3c-2.5,0-4.6,2.4-4.8,4.8c-0.1,0.8-1.1,0.7-1.1-0.1c0.3-3,2.9-5.9,6-6h14.3c0.7,0,1.2-0.5,1.2-1.2v-1.2
			c0-0.7-0.6-1.1-1.2-1.1h-2.4c-0.8,0-1.3,0.2-1.8,0.7l-2.9,1.7C-963.4,3429.5-964.7,3429.5-964.2,3429z"/>
	</g>
</g>
</svg>
