<?xml version="1.0" encoding="utf-8"?>
<!-- Generator: Adobe Illustrator 19.2.1, SVG Export Plug-In . SVG Version: 6.00 Build 0)  -->
<svg version="1.1" id="Слой_1" xmlns="http://www.w3.org/2000/svg" xmlns:xlink="http://www.w3.org/1999/xlink" x="0px" y="0px"
	 viewBox="0 0 120 120" style="enable-background:new 0 0 120 120;" xml:space="preserve">
<style type="text/css">
	.st0{fill:#222222;}
	.st1{fill:#32B2FB;}
	.st2{fill:#FFFFFF;}
</style>
<g>
	<path class="st0" d="M95.1,35.1c0,19.4-29.6,39.5-35.1,84.9c-5.5-45.4-35.1-65.5-35.1-84.9S40.6,0,60,0S95.1,15.7,95.1,35.1z"/>
	<g>
		<circle class="st1" cx="60" cy="34.6" r="29.4"/>
		<path class="st2" d="M75.1,30.1l-2.3-1.8c-0.5-0.5-0.7-0.7-1.5-0.7h-3.8c-0.7,0-1.3,0.6-1.3,1.3v1.3c0,0.8,0.6,1.3,1.3,1.3h6.3
			c3.2,0,6,3.1,6.3,6.3c0.1,0.8-1.2,0.8-1.3,0c-0.3-2.6-2.4-5-5-5h-6.3c-1.4,0-2.5-1.2-2.5-2.5v-1.3c0-1.4,1.2-2.5,2.5-2.5h3.8
			c1.1,0,1.6,0.5,2.3,1.2l2.7,2.6C76.9,30.7,75.7,30.7,75.1,30.1z M46.3,34c2.4,0,4.3,2,4.3,4.4c0,2.4-1.9,4.4-4.3,4.4
			c-2.4,0-4.3-2-4.3-4.4C42,36,43.9,34,46.3,34z M46.3,35.2c-1.7,0-3.2,1.4-3.2,3.2c0,1.8,1.4,3.2,3.2,3.2c1.7,0,3.2-1.4,3.2-3.2
			C49.5,36.6,48.1,35.2,46.3,35.2z M73.9,34c2.4,0,4.3,2,4.3,4.4c0,2.4-1.9,4.4-4.3,4.4c-2.4,0-4.3-2-4.3-4.4
			C69.6,36,71.5,34,73.9,34z M73.9,35.2c-1.7,0-3.2,1.4-3.2,3.2c0,1.8,1.4,3.2,3.2,3.2c1.7,0,3.2-1.4,3.2-3.2
			C77,36.6,75.6,35.2,73.9,35.2z M52.4,39h15.1c0.8,0,0.8,1.3,0,1.3H52.4C51.7,40.2,51.7,39,52.4,39z M52.4,30.1l3.6-2.6
			c0.7-0.7,1.7-1.2,2.7-1.2h2.5c1.3,0,2.5,1.2,2.5,2.5v1.3c0,1.3-1.1,2.5-2.5,2.5H46.1c-2.6,0-4.9,2.5-5.1,5.1
			c-0.1,0.8-1.2,0.7-1.2-0.1c0.3-3.2,3.1-6.2,6.3-6.3h15.1c0.7,0,1.3-0.5,1.3-1.3l0-1.3c0-0.7-0.6-1.2-1.3-1.2h-2.5
			c-0.8,0-1.4,0.2-1.9,0.7l-3.1,1.8C53.2,30.7,51.9,30.7,52.4,30.1z"/>
	</g>
</g>
</svg>
